 <svg width="12" height="13" viewBox="0 0 12 13" fill="none" xmlns="http://www.w3.org/2000/svg">
                                            <path id="Calendar" fill-rule="evenodd" clip-rule="evenodd" d="M8.44323 1.35175L8.4438 1.78243C10.0264 1.90647 11.0719 2.9849 11.0736 4.63871L11.0798 9.47957C11.0821 11.2827 9.94928 12.3921 8.13351 12.395L3.69819 12.4007C1.89377 12.403 0.746794 11.2672 0.744525 9.4589L0.738285 4.67489C0.736016 3.01016 1.74459 1.93461 3.32721 1.78932L3.32664 1.35864C3.32608 1.10598 3.51327 0.915901 3.76286 0.915901C4.01245 0.915327 4.19964 1.10483 4.20021 1.35749L4.20077 1.75946L7.57023 1.75487L7.56967 1.3529C7.5691 1.10023 7.75629 0.910733 8.00588 0.910158C8.2498 0.909585 8.44266 1.09908 8.44323 1.35175ZM1.61202 4.85214L10.2002 4.84066V4.63967C10.1758 3.40505 9.55635 2.75731 8.44454 2.66083L8.44511 3.103C8.44511 3.34992 8.25281 3.54574 8.00889 3.54574C7.7593 3.54631 7.57154 3.35107 7.57154 3.10415L7.57098 2.63901L4.20152 2.64361L4.20208 3.10817C4.20208 3.35567 4.01546 3.55091 3.76587 3.55091C3.51628 3.55148 3.32852 3.35681 3.32852 3.10932L3.32795 2.66715C2.22182 2.77798 1.60975 3.42802 1.61146 4.67355L1.61202 4.85214ZM7.77161 7.46292V7.46925C7.77729 7.73366 7.99306 7.93427 8.25482 7.92852C8.51034 7.9222 8.71418 7.7032 8.70851 7.43878C8.69658 7.18586 8.4916 6.9795 8.23665 6.98008C7.97546 6.98583 7.77104 7.19851 7.77161 7.46292ZM8.23633 10.0418C7.97514 10.0361 7.76448 9.81822 7.76391 9.5538C7.75823 9.28939 7.96775 9.07038 8.22895 9.06406H8.23463C8.5015 9.06406 8.71784 9.28192 8.71784 9.55208C8.71841 9.82224 8.50264 10.0412 8.23633 10.0418ZM5.43372 7.47206C5.44508 7.73648 5.66141 7.94284 5.92261 7.93134C6.17813 7.91927 6.38197 7.70084 6.37062 7.43643C6.36437 7.17776 6.15428 6.97657 5.89876 6.97715C5.63757 6.98864 5.43315 7.20765 5.43372 7.47206ZM5.92456 10.0156C5.66337 10.0271 5.44759 9.82071 5.43567 9.55629C5.43567 9.29188 5.63952 9.07345 5.90071 9.06138C6.15623 9.0608 6.36689 9.26199 6.37257 9.52008C6.38449 9.78507 6.18008 10.0035 5.92456 10.0156ZM3.09583 7.49184C3.10718 7.75626 3.32352 7.96319 3.58472 7.95112C3.84024 7.93962 4.04408 7.72062 4.03216 7.4562C4.02648 7.19753 3.81639 6.99635 3.5603 6.99692C3.29911 7.00842 3.09526 7.22742 3.09583 7.49184ZM3.58829 10.0187C3.32709 10.0308 3.11132 9.82386 3.0994 9.55944C3.09883 9.29503 3.30325 9.07602 3.56444 9.06453C3.81996 9.06395 4.03062 9.26514 4.0363 9.5238C4.04822 9.78822 3.84437 10.0072 3.58829 10.0187Z" fill="#FDB422" />
                                        </svg>