 <svg width="152" height="152" viewBox="0 0 152 152" fill="none" xmlns="http://www.w3.org/2000/svg">
                                            <g id="Frame 230">
                                                <path id="Subtract" fill-rule="evenodd" clip-rule="evenodd" d="M76.0001 152C117.974 152 152 117.974 152 76C152 34.0264 117.974 3.05176e-05 76.0001 3.05176e-05C34.0265 3.05176e-05 0.000137329 34.0264 0.000137329 76C0.000137329 117.974 34.0265 152 76.0001 152ZM75.9998 142.827C112.908 142.827 142.827 112.908 142.827 76C142.827 39.0921 112.908 9.17242 75.9998 9.17242C39.092 9.17242 9.17225 39.0921 9.17225 76C9.17225 112.908 39.092 142.827 75.9998 142.827Z" fill="#292F3B" />
                                                <path id="Subtract_2" fill-rule="evenodd" clip-rule="evenodd" d="M146.215 46.916C150.034 56.1368 152 66.0195 152 75.9999L142.827 75.9999C142.827 39.0922 112.908 9.17254 76 9.17239L76 0C85.9805 0 95.8632 1.96579 105.084 5.78515C114.305 9.6045 122.683 15.2026 129.74 22.2599C136.797 29.3171 142.395 37.6953 146.215 46.916Z" fill="#93660D" />
                                                <circle id="Ellipse 11" cx="147.413" cy="75.9998" r="4.5862" fill="#93660D" />
                                                <circle id="Ellipse 12" cx="76.0002" cy="4.5862" r="4.5862" fill="#93660D" />
                                            </g>
                                        </svg>