 <svg width="116" height="116" viewBox="0 0 116 116" fill="none" xmlns="http://www.w3.org/2000/svg">
                                            <path id="Subtract" fill-rule="evenodd" clip-rule="evenodd" d="M57.9998 115.655C89.8419 115.655 115.655 89.8423 115.655 58.0003C115.655 26.1582 89.8419 0.345123 57.9998 0.345123C26.1578 0.345123 0.344681 26.1582 0.344681 58.0003C0.344681 89.8423 26.1578 115.655 57.9998 115.655ZM57.9995 106.483C84.7758 106.483 106.482 84.7765 106.482 58.0002C106.482 31.224 84.7758 9.51751 57.9995 9.51751C31.2232 9.51751 9.51679 31.224 9.51679 58.0002C9.51679 84.7765 31.2232 106.483 57.9995 106.483Z" fill="#292F3B" />
                                            <path id="Subtract" fill-rule="evenodd" clip-rule="evenodd" d="M10.0613 90.0317C3.72609 80.5504 0.344681 69.4034 0.344681 58.0003L9.51679 58.0002C9.51679 84.7765 31.2232 106.483 57.9995 106.483C84.7758 106.483 106.482 84.7765 106.482 58.0002C106.482 31.2241 84.776 9.51767 57.9998 9.51751V0.345123C69.4029 0.345123 80.55 3.72654 90.0313 10.0618C99.5126 16.397 106.902 25.4015 111.266 35.9366C115.63 46.4717 116.772 58.0642 114.547 69.2482C112.322 80.4322 106.831 90.7054 98.7682 98.7686C90.7049 106.832 80.4318 112.323 69.2478 114.548C58.0638 116.772 46.4712 115.63 35.9361 111.267C25.401 106.903 16.3965 99.5131 10.0613 90.0317Z" fill="#005C2B" />
                                            <circle id="Ellipse 11" cx="5" cy="59" r="4.5862" fill="#005C2B" />
                                            <circle id="Ellipse 12" cx="58" cy="5" r="4.5862" fill="#005C2B" />
                                        </svg>