<svg width="120" height="53" viewBox="0 0 120 53" fill="none" xmlns="http://www.w3.org/2000/svg">
<g id="Frame" clip-path="url(#clip0_287_5060)">
<g id="Group">
<path id="Vector" d="M0 28.1757C0 19.3759 6.93066 13.1018 16.7872 13.1018C19.7126 13.1018 22.9055 13.6468 24.6967 14.4592V19.9546H24.4962L17.6434 15.0489C17.2898 14.9262 16.5521 14.8469 15.8527 14.8469C10.6685 14.8469 7.00812 19.6765 7.00812 26.3402C7.00812 33.7827 11.5694 39.5782 17.3654 39.5782C17.758 39.5717 18.1492 39.5308 18.5347 39.4561L18.4231 39.4099V27.0521L16.6655 24.905V24.7049H26.9103V24.905L25.1527 27.0521V41.4253H24.9526L20.5135 40.0568C18.8007 40.9135 16.1528 41.5364 13.7723 41.5364C5.60696 41.5364 0 36.1184 0 28.1757ZM31.6495 24.4043L29.5803 22.3355V22.1778L36.9448 20.2325H37.334L37.6106 24.4043H37.8439C39.524 21.4451 41.0035 20.2325 42.8722 20.2325C43.651 20.2325 44.3186 20.4663 44.6635 20.778V27.0853H44.4634L40.5272 24.437C40.4102 24.4124 40.2908 24.4011 40.1713 24.4033C39.3594 24.4033 38.1911 25.1821 37.8019 26.1166V38.888L39.8592 40.7585V40.9586H29.8919V40.7585L31.6495 38.8894V24.4043ZM46.3339 40.9466V40.7908L48.0914 38.8774V24.4043L46.0226 22.3798V22.1778L53.8543 20.2307H54.2434V38.8885L56.0014 40.8019V40.9577H46.3339V40.9466ZM47.812 14.0474C47.812 12.134 49.103 10.9657 51.1607 10.9657C53.2184 10.9657 54.5089 12.134 54.5089 14.0474C54.5089 15.9166 53.23 17.0845 51.1607 17.0845C49.0915 17.0845 47.812 15.9166 47.812 14.0474ZM58.8604 40.9466V40.7465L60.618 38.8774V23.0363H57.8479V22.8805L60.651 20.4663C61.5078 14.8151 64.9788 10.9657 69.2172 10.9657C70.2738 10.9657 71.5224 11.1995 72.0204 11.4775L71.3976 16.5837H71.1972L65.6244 14.1253C64.4118 14.2475 63.3648 16.2278 63.3648 18.019C63.3648 20.3216 65.1228 21.601 68.1138 21.601H73.2978C73.6098 15.6072 76.9578 10.9657 81.1296 10.9657C82.1088 10.9657 83.277 11.1995 83.8218 11.4775L83.1546 16.5395H82.9542L78.0054 14.2014C76.8708 14.3125 75.981 15.9922 75.981 17.8282C75.981 20.3179 77.6166 21.6088 80.7762 21.6088H92.691L92.3784 23.8376V38.9604L94.1364 40.7959V40.9517H84.447V40.7959L86.238 38.8825V23.0363H79.4184V38.8885L81.7548 40.7585V40.9586H71.4732V40.7585L73.2642 38.8451V23.0363H66.759V38.8885L69.0948 40.7585V40.9586H58.8595L58.8604 40.9466ZM85.971 14.0474C85.971 12.134 87.2502 10.9657 89.3196 10.9657C91.422 10.9657 92.7126 12.134 92.7126 14.0474C92.7126 15.9166 91.4214 17.0845 89.3196 17.0845C87.2502 17.0845 85.971 15.9166 85.971 14.0474ZM104.927 38.8885L106.685 40.7585V40.9586H97.0176V40.7585L98.7756 38.8894V24.4121L96.7062 22.3433V22.1428L104.071 20.2294H104.46L104.737 23.8892H105.004C107.139 21.4309 109.442 20.2294 112.012 20.2294C115.483 20.2294 117.896 22.4885 117.896 25.6805V38.8853L119.654 40.7544V40.9545H109.954V40.7544L111.745 38.7631V26.905C111.745 24.9916 110.577 23.8238 108.707 23.8238C107.463 23.8238 106.218 24.324 104.927 25.3365L104.927 38.8885Z" fill="#D0D1DD"/>
</g>
</g>
<defs>
<clipPath id="clip0_287_5060">
<rect width="120" height="52" fill="white" transform="translate(0 0.5)"/>
</clipPath>
</defs>
</svg>
