<svg width="160" height="41" viewBox="0 0 160 41" fill="none" xmlns="http://www.w3.org/2000/svg">
<g id="Frame" clip-path="url(#clip0_287_5053)">
<path id="Vector" fill-rule="evenodd" clip-rule="evenodd" d="M27.8412 33.2182C25.4351 35.6244 21.7516 35.6244 15.123 35.6244C8.49576 35.6244 4.8123 35.623 2.40478 33.2182C0 30.812 0 27.1273 0 20.5C0 13.8742 0 10.1879 2.40478 7.78313C4.8123 5.37561 8.49576 5.37561 15.123 5.37561C21.7516 5.37561 25.4351 5.37561 27.8412 7.78313C30.2488 10.1893 30.2488 13.8727 30.2488 20.5C30.2488 27.1273 30.2488 30.812 27.8412 33.2182ZM16.5695 18.5572L7.43982 18.5393L7.43844 20.7874L16.0552 20.8038L15.5479 23.0478L7.43844 23.0313V25.2779L15.0405 25.2944H15.0281C14.7339 26.4274 15.563 27.5507 16.7015 27.5507H18.2799L19.1516 25.2944H15.0405L15.5479 23.0505L20.7149 23.0601L21.5165 20.8135L16.0662 20.8038L16.5763 18.5572L23.9542 18.5215L24.8686 16.2844L17.0864 16.3105L16.5695 18.5572ZM15.7568 14.0556L7.43982 14.0377L7.43844 16.2858L17.0851 16.3023L17.1717 15.9105C17.3875 14.9645 16.6973 14.0556 15.7568 14.0556Z" fill="#D0D1DD"/>
<path id="Vector_2" d="M53.7706 29.2438H57.637L58.0109 26.9318H58.7141C59.2764 28.6312 60.7987 29.4795 62.3697 29.4795C65.6249 29.4795 67.6173 27.3573 67.6173 22.8297C67.6173 18.8434 65.9765 16.1799 62.4618 16.1799C60.7763 16.1799 59.2764 17.1928 58.7141 18.7011H58.0109L58.2453 15.1641V11.5559H53.7706V29.2438ZM58.2453 23.2301V22.4516C58.2453 20.7996 59.1592 19.7866 60.7526 19.7866C62.1353 19.7866 63.0716 20.4005 63.0716 21.98V23.7017C63.0716 24.9994 62.4395 25.8714 60.775 25.8714C59.1132 25.8714 58.2453 24.8571 58.2453 23.2301ZM68.7879 22.852C68.7879 26.8383 71.3888 29.4795 75.3471 29.4795C78.6288 29.4795 81.0399 27.7341 81.3694 25.0468H77.1051C76.988 25.7765 76.2387 26.2007 75.2076 26.2007C74.1528 26.2007 73.2849 25.5421 73.2849 24.5501V23.8901H81.2285C81.3694 23.3962 81.4148 22.7111 81.4148 22.0512C81.4148 18.2309 78.6749 16.1784 75.2076 16.1784C71.5995 16.1784 68.7879 18.5839 68.7879 22.852ZM73.2849 21.2014V20.9433C73.2849 20.0936 74.0816 19.4796 75.1602 19.4796C76.2387 19.4796 76.942 20.0936 76.942 20.9433V21.2014H73.2849ZM91.8474 16.3431C90.4186 16.3431 89.3169 17.1691 88.965 19.2201H88.2622L87.7233 16.4142H81.8423V20.0224H83.7885V29.2438H88.263V24.0087C88.263 21.32 89.9266 20.5652 91.8228 20.5652C92.0823 20.5652 92.3402 20.5889 92.6204 20.6126V16.4142C92.3664 16.3626 92.1069 16.3389 91.8474 16.3431ZM93.8096 16.4142V33.1826H98.2841V30.4939L98.0492 26.9555H98.7529C99.3149 28.4652 100.815 29.4795 102.502 29.4795C106.015 29.4795 107.656 26.8146 107.656 22.8297C107.656 18.3021 105.664 16.1799 102.407 16.1799C100.838 16.1799 99.3149 17.0282 98.7529 18.7248H98.0492L97.6743 16.4142H93.8096ZM98.2841 22.4278C98.2841 20.801 99.1517 19.788 100.815 19.788C102.478 19.788 103.11 20.66 103.11 21.9563V23.678C103.11 25.2589 102.174 25.8714 100.792 25.8714C99.1979 25.8714 98.2841 24.8571 98.2841 23.2064V22.4278ZM113.213 25.7542V11.5559H108.761V25.8253C108.761 27.8764 109.583 29.2452 112.159 29.2452H116.118V25.7556H113.213V25.7542ZM116.942 25.6342C116.942 27.9936 118.651 29.4795 121.275 29.4795C123.453 29.4795 124.977 28.4652 125.47 26.9555H126.1V29.2438H130.788V25.9412H129.17V20.8261C129.17 18.0439 127.578 16.1799 123.5 16.1799C119.752 16.1799 117.574 17.8067 117.713 20.967H121.814C121.743 19.9052 122.376 19.5522 123.29 19.5522C124.156 19.5522 124.717 19.9052 124.717 20.8024V21.6981L121.158 21.9339C118.651 22.1 116.94 23.2776 116.94 25.637L116.942 25.6342ZM121.439 25.0231C121.439 24.5277 121.791 24.0562 122.588 24.0087L124.719 23.8664V25.3523C124.367 25.8951 123.664 26.2481 122.797 26.2481C121.86 26.2481 121.44 25.8477 121.44 25.3049L121.439 25.0231ZM132.144 29.2438H136.62V22.3804C136.62 20.8722 137.369 19.8104 138.868 19.8104C140.134 19.8104 140.837 20.5414 140.837 22.1223V29.2438H145.334V20.5414C145.334 17.924 143.906 16.1784 141.352 16.1784C139.384 16.1784 137.978 17.0979 137.322 18.7011H136.62L136.081 16.4142H132.144V29.2438ZM146.771 22.852C146.771 26.8383 149.373 29.4795 153.333 29.4795C156.612 29.4795 159.026 27.7341 159.354 25.0468H155.09C154.973 25.7765 154.224 26.2007 153.192 26.2007C152.137 26.2007 151.271 25.5421 151.271 24.5501V23.8901H159.214C159.354 23.3962 159.401 22.7111 159.401 22.0512C159.401 18.2309 156.659 16.1784 153.192 16.1784C149.584 16.1784 146.771 18.5839 146.771 22.852ZM151.271 21.2014V20.9433C151.271 20.0936 152.068 19.4796 153.145 19.4796C154.224 19.4796 154.926 20.0936 154.926 20.9433V21.2014H151.271ZM43.4359 16.4157H52.2665V29.2438H47.771V20.021H43.4359V29.2424H38.9389V20.021H36.6172V16.4157H38.9389V15.3105C38.9389 15.012 38.9431 14.793 38.9501 14.6548C38.9584 14.5097 38.9822 14.3297 39.0198 14.1134C39.0645 13.8986 39.1343 13.6684 39.2249 13.4228C39.6757 12.1768 40.8239 11.5573 42.6684 11.5573H46.3171V15.0455H43.4359V16.4157ZM47.7933 15.0455V11.5559H52.2665V15.0455H47.7933Z" fill="#D0D1DD"/>
</g>
<defs>
<clipPath id="clip0_287_5053">
<rect width="160" height="40" fill="white" transform="translate(0 0.5)"/>
</clipPath>
</defs>
</svg>
