<svg width="160" height="41" viewBox="0 0 160 41" fill="none" xmlns="http://www.w3.org/2000/svg">
<g id="Layer_1-2">
<g id="Group">
<path id="Vector" d="M46.6067 5.22581C46.6067 3.26424 45.0165 1.67407 43.0549 1.67407C41.0933 1.67407 39.5032 3.26424 39.5032 5.22581C39.5032 7.18738 41.0933 8.77755 43.0549 8.77755C45.0165 8.77755 46.6067 7.18738 46.6067 5.22581Z" fill="white"/>
<path id="Vector_2" d="M84.3649 5.22581C84.3649 3.26424 82.7747 1.67407 80.8131 1.67407C78.8516 1.67407 77.2614 3.26424 77.2614 5.22581C77.2614 7.18738 78.8516 8.77755 80.8131 8.77755C82.7747 8.77755 84.3649 7.18738 84.3649 5.22581Z" fill="#00D563"/>
<g id="Group_2">
<path id="Vector_3" d="M24.5079 38.4048C22.8073 39.1223 21.089 39.4766 19.3619 39.4766C16.625 39.4766 14.1715 38.9983 11.9838 38.0506C9.79607 37.1028 7.96263 35.792 6.45691 34.1268C4.96004 32.4617 3.80861 30.5042 3.01146 28.2545C2.21431 26.0048 1.81573 23.5779 1.81573 20.9827C1.81573 18.3876 2.21431 15.8455 3.01146 13.5604C3.80861 11.2752 4.96004 9.28235 6.45691 7.58177C7.95378 5.88119 9.79607 4.55261 11.9838 3.57831C14.1627 2.61288 16.625 2.12573 19.3619 2.12573C21.1953 2.12573 22.9667 2.40031 24.685 2.94945C26.4033 3.4986 27.9533 4.3046 29.3351 5.37633C30.7168 6.43919 31.8594 7.75891 32.7628 9.32664C33.6662 10.8944 34.2154 12.6924 34.4102 14.7295H26.9082C26.4388 12.7278 25.5442 11.2309 24.2067 10.2301C22.8693 9.22921 21.2573 8.73321 19.3619 8.73321C17.5904 8.73321 16.0935 9.07864 14.8624 9.76064C13.6312 10.4426 12.6304 11.3638 11.8598 12.5064C11.0892 13.6578 10.5312 14.9687 10.1858 16.4301C9.8315 17.9004 9.66322 19.415 9.66322 20.9827C9.66322 22.5504 9.84036 23.941 10.1858 25.3582C10.5401 26.7753 11.0981 28.0508 11.8598 29.1845C12.6304 30.3182 13.6224 31.2305 14.8624 31.9125C16.0935 32.5945 17.5904 32.9399 19.3619 32.9399C21.9659 32.9399 23.9676 32.2845 25.3848 30.9648C26.8019 29.6451 27.6256 27.7408 27.8559 25.243H19.9553V19.3973H34.9505V38.6971H29.9462L29.1491 34.6494C27.7496 36.4474 26.1996 37.7051 24.499 38.4226L24.5079 38.4048Z" fill="white"/>
<path id="Vector_4" d="M46.6067 12.834H39.5032V38.6793H46.6067V12.834Z" fill="white"/>
<path id="Vector_5" d="M63.2582 12.834V17.5815H58.059V30.3802C58.059 31.5759 58.2628 32.3819 58.6613 32.7805C59.0599 33.179 59.857 33.3827 61.0616 33.3827C61.4602 33.3827 61.8411 33.365 62.2131 33.3296C62.5762 33.2942 62.9305 33.2499 63.2671 33.179V38.6794C62.6648 38.7768 62.0005 38.8476 61.2653 38.8831C60.5302 38.9185 59.8128 38.9362 59.113 38.9362C58.0147 38.9362 56.9696 38.8654 55.9864 38.7148C55.0033 38.5642 54.1353 38.2719 53.3824 37.8379C52.6296 37.4039 52.045 36.7839 51.611 35.9868C51.177 35.1896 50.9644 34.1356 50.9644 32.8336V5.08398H58.0679V12.834H63.2671H63.2582Z" fill="white"/>
<path id="Vector_6" d="M72.7088 2.98511V38.6796H65.6053V2.98511H72.7088Z" fill="#00D563"/>
<path id="Vector_7" d="M84.3649 12.834H77.2614V38.6793H84.3649V12.834Z" fill="#00D563"/>
<path id="Vector_8" d="M95.6047 12.8341V16.3327H95.7021C96.6321 15.0041 97.757 13.9678 99.0767 13.2326C100.396 12.4975 101.902 12.1343 103.603 12.1343C105.303 12.1343 106.729 12.4532 108.076 13.0821C109.422 13.7198 110.449 14.8358 111.149 16.4301C111.92 15.2964 112.956 14.2955 114.276 13.4275C115.595 12.5595 117.154 12.1255 118.952 12.1255C120.316 12.1255 121.583 12.2938 122.752 12.6215C123.921 12.9581 124.913 13.4895 125.755 14.2246C126.587 14.9598 127.234 15.9164 127.703 17.1032C128.173 18.2901 128.403 19.7161 128.403 21.3813V38.6794H121.299V24.0384C121.299 23.1704 121.264 22.3556 121.202 21.585C121.131 20.8233 120.954 20.1501 120.653 19.5833C120.352 19.0164 119.909 18.5647 119.324 18.237C118.74 17.9004 117.951 17.741 116.951 17.741C115.95 17.741 115.144 17.9358 114.524 18.3167C113.904 18.6975 113.425 19.2024 113.071 19.8135C112.717 20.4335 112.487 21.1333 112.371 21.9127C112.256 22.6921 112.194 23.4893 112.194 24.2864V38.6882H105.091V24.189C105.091 23.4184 105.073 22.6656 105.038 21.9127C105.002 21.1598 104.86 20.469 104.612 19.8401C104.364 19.2113 103.948 18.6975 103.364 18.3167C102.779 17.9358 101.92 17.741 100.786 17.741C100.45 17.741 100.016 17.8118 99.4576 17.9624C98.9084 18.113 98.377 18.3964 97.8544 18.8127C97.3407 19.229 96.8978 19.8313 96.5258 20.6107C96.1627 21.3901 95.9767 22.4176 95.9767 23.6841V38.6794H88.8732V12.8341H95.5693H95.6047Z" fill="#00D563"/>
<path id="Vector_9" d="M140.351 32.4883C141.414 33.5246 142.955 34.0383 144.948 34.0383C146.383 34.0383 147.614 33.684 148.65 32.9666C149.687 32.2492 150.316 31.4874 150.555 30.6903H156.808C155.807 33.7903 154.275 36.0046 152.211 37.3421C150.147 38.6795 147.641 39.3438 144.709 39.3438C142.672 39.3438 140.838 39.0161 139.209 38.3695C137.579 37.7229 136.188 36.7929 135.055 35.5972C133.921 34.4015 133.044 32.9666 132.433 31.3014C131.813 29.6363 131.512 27.8028 131.512 25.8011C131.512 23.7994 131.831 22.0722 132.46 20.3982C133.088 18.7331 133.992 17.2893 135.161 16.0759C136.33 14.8625 137.721 13.897 139.333 13.1973C140.945 12.4976 142.743 12.1433 144.709 12.1433C146.906 12.1433 148.828 12.5685 150.457 13.4187C152.087 14.269 153.433 15.4116 154.479 16.8465C155.533 18.2814 156.285 19.9111 156.755 21.7445C157.224 23.578 157.384 25.4911 157.251 27.4928H138.606C138.704 29.7957 139.288 31.4609 140.36 32.4883H140.351ZM148.376 18.8925C147.526 17.9625 146.232 17.4931 144.496 17.4931C143.363 17.4931 142.424 17.6879 141.671 18.0688C140.918 18.4496 140.325 18.9279 139.873 19.4948C139.421 20.0617 139.102 20.6639 138.925 21.2928C138.739 21.9305 138.633 22.4885 138.598 22.9934H150.147C149.811 21.1954 149.226 19.8314 148.376 18.8925Z" fill="#00D563"/>
</g>
</g>
</g>
</svg>
