   <svg  width="18" height="18" viewBox="0 0 14 10" fill="none" xmlns="http://www.w3.org/2000/svg">
                                            <g id="3 User">
                                                <path id="3 Friends" fill-rule="evenodd" clip-rule="evenodd" d="M9.40564 2.54559C9.40564 3.91666 8.30498 5.01603 6.93231 5.01603C5.55964 5.01603 4.45898 3.91666 4.45898 2.54559C4.45898 1.17401 5.55964 0.0756836 6.93231 0.0756836C8.30498 0.0756836 9.40564 1.17401 9.40564 2.54559ZM6.93292 9.41153C4.9168 9.41153 3.19531 9.09412 3.19531 7.82448C3.19531 6.55431 4.90575 6.22534 6.93292 6.22534C8.94904 6.22534 10.6705 6.54275 10.6705 7.81292C10.6705 9.08255 8.96009 9.41153 6.93292 9.41153ZM10.4634 2.59037C10.4634 3.2893 10.2535 3.94041 9.8852 4.48169C9.84732 4.5374 9.88099 4.61254 9.94781 4.6241C10.0399 4.63987 10.1351 4.6488 10.2319 4.65143C11.1974 4.67666 12.0639 4.05603 12.3033 3.12166C12.6579 1.73378 11.6167 0.487793 10.2908 0.487793C10.1467 0.487793 10.0088 0.503033 9.87468 0.53036C9.85626 0.534564 9.8368 0.542972 9.82627 0.559263C9.81365 0.579232 9.82312 0.606033 9.83575 0.623375C10.234 1.18094 10.4634 1.86096 10.4634 2.59037ZM12.0636 5.62631C12.7123 5.75296 13.139 6.01151 13.3158 6.38725C13.4652 6.69573 13.4652 7.0536 13.3158 7.36155C13.0454 7.94435 12.1736 8.13143 11.8347 8.17978C11.7648 8.19029 11.7085 8.12985 11.7158 8.05996C11.8889 6.44506 10.5121 5.67939 10.1559 5.50334C10.1406 5.49546 10.1375 5.48337 10.139 5.47601C10.1401 5.47076 10.1464 5.46235 10.158 5.46077C10.9288 5.44658 11.7574 5.55169 12.0636 5.62631ZM3.69237 4.6507C3.78918 4.64807 3.88388 4.63966 3.97648 4.62337C4.04329 4.61181 4.07697 4.53666 4.03909 4.48096C3.6708 3.93968 3.46087 3.28857 3.46087 2.58964C3.46087 1.86023 3.69026 1.18021 4.08854 0.622643C4.10117 0.605301 4.11011 0.5785 4.09801 0.55853C4.08749 0.542765 4.0675 0.533831 4.04961 0.529627C3.91492 0.5023 3.77707 0.487061 3.63292 0.487061C2.30707 0.487061 1.26587 1.73305 1.621 3.12093C1.86039 4.05529 2.72692 4.67592 3.69237 4.6507ZM3.78869 5.47544C3.79027 5.48332 3.78711 5.49488 3.77238 5.50329C3.41567 5.67934 2.03879 6.44501 2.21189 8.05938C2.21925 8.1298 2.16348 8.18971 2.09351 8.17973C1.75468 8.13138 0.882889 7.9443 0.61246 7.3615C0.462513 7.05303 0.462513 6.69568 0.61246 6.3872C0.789239 6.01146 1.2154 5.75291 1.86412 5.62573C2.17085 5.55164 2.99897 5.44653 3.77028 5.46072C3.78185 5.4623 3.78764 5.47071 3.78869 5.47544Z" fill="#101228" />
                                            </g>
                                        </svg>