 <svg width="15" height="15" viewBox="0 0 12 12" fill="none" xmlns="http://www.w3.org/2000/svg">
                                            <g id="Time Circle">
                                                <path id="Time Circle_2" fill-rule="evenodd" clip-rule="evenodd" d="M5.90351 11.9044C2.7321 11.9044 0.158203 9.33627 0.158203 6.15912C0.158203 2.98771 2.7321 0.413818 5.90351 0.413818C9.08066 0.413818 11.6488 2.98771 11.6488 6.15912C11.6488 9.33627 9.08066 11.9044 5.90351 11.9044ZM7.73817 8.29047C7.80712 8.33069 7.8818 8.35367 7.96224 8.35367C8.10587 8.35367 8.2495 8.27898 8.32994 8.14109C8.45059 7.94001 8.38739 7.67572 8.18056 7.54932L6.13523 6.33132V3.67699C6.13523 3.43569 5.93989 3.24609 5.70434 3.24609C5.46878 3.24609 5.27344 3.43569 5.27344 3.67699V6.57837C5.27344 6.72775 5.35387 6.86563 5.48601 6.94607L7.73817 8.29047Z" fill="#FDB422" />
                                            </g>
                                        </svg>