<?xml version="1.0" encoding="UTF-8"?>
<!DOCTYPE svg PUBLIC "-//W3C//DTD SVG 1.1//EN" "http://www.w3.org/Graphics/SVG/1.1/DTD/svg11.dtd">
<svg xmlns="http://www.w3.org/2000/svg" version="1.1" width="225px" height="225px" style="shape-rendering:geometricPrecision; text-rendering:geometricPrecision; image-rendering:optimizeQuality; fill-rule:evenodd; clip-rule:evenodd" xmlns:xlink="http://www.w3.org/1999/xlink">
<g><path style="opacity:1" fill="#fefefe" d="M -0.5,-0.5 C 74.5,-0.5 149.5,-0.5 224.5,-0.5C 224.5,74.5 224.5,149.5 224.5,224.5C 149.5,224.5 74.5,224.5 -0.5,224.5C -0.5,149.5 -0.5,74.5 -0.5,-0.5 Z"/></g>
<g><path style="opacity:1" fill="#292828" d="M 100.5,24.5 C 150.944,22.479 183.444,45.479 198,93.5C 204.433,138.135 187.933,170.969 148.5,192C 107.298,207.633 72.1317,199.133 43,166.5C 23.2623,139.057 19.2623,109.391 31,77.5C 45.4037,48.0778 68.5704,30.4111 100.5,24.5 Z"/></g>
<g><path style="opacity:1" fill="#09d2f0" d="M 130.5,63.5 C 136.957,62.9749 141.457,65.6416 144,71.5C 146.051,78.8875 145.884,86.2209 143.5,93.5C 151.196,96.0953 158.029,100.095 164,105.5C 167.446,111.86 166.28,117.36 160.5,122C 155.779,125.027 150.779,127.527 145.5,129.5C 145.432,136.091 145.266,142.758 145,149.5C 142.647,158.764 136.814,161.931 127.5,159C 122.06,155.891 116.893,152.391 112,148.5C 104.955,156.609 96.1218,160.109 85.5,159C 84.0692,158.535 82.9025,157.701 82,156.5C 77.9412,148.192 77.4412,139.692 80.5,131C 72.6322,128.453 65.7989,124.286 60,118.5C 56.9631,111.471 58.4631,105.638 64.5,101C 69.2838,97.4401 74.6172,95.2735 80.5,94.5C 78.7858,87.9296 78.2858,81.2629 79,74.5C 81.3531,65.2361 87.1865,62.0694 96.5,65C 102.272,67.6338 107.439,71.1338 112,75.5C 117.555,70.4246 123.721,66.4246 130.5,63.5 Z"/></g>
<g><path style="opacity:1" fill="#292929" d="M 86.5,69.5 C 95.1148,69.0578 102.281,72.0578 108,78.5C 108.667,79.1667 108.667,79.8333 108,80.5C 105.023,83.1306 102.523,86.1306 100.5,89.5C 95.5559,91.3831 90.5559,92.0497 85.5,91.5C 82.5803,83.971 82.9137,76.6376 86.5,69.5 Z"/></g>
<g><path style="opacity:1" fill="#2a2a2a" d="M 131.5,68.5 C 135.182,67.7253 137.682,69.0586 139,72.5C 140.729,79.1071 140.896,85.7738 139.5,92.5C 134.457,91.9917 129.457,91.1584 124.5,90C 121.5,86.3333 118.5,82.6667 115.5,79C 120.419,74.7179 125.752,71.2179 131.5,68.5 Z"/></g>
<g><path style="opacity:1" fill="#2b2221" d="M 116.5,88.5 C 113.5,89.8333 110.5,89.8333 107.5,88.5C 108.812,86.5212 110.479,84.8545 112.5,83.5C 113.857,85.1856 115.19,86.8523 116.5,88.5 Z"/></g>
<g><path style="opacity:1" fill="#217686" d="M 107.5,88.5 C 110.5,89.8333 113.5,89.8333 116.5,88.5C 117.043,88.56 117.376,88.8933 117.5,89.5C 113.833,90.8333 110.167,90.8333 106.5,89.5C 106.624,88.8933 106.957,88.56 107.5,88.5 Z"/></g>
<g><path style="opacity:1" fill="#2a2a2a" d="M 102.5,94.5 C 109.2,94.17 115.866,94.5033 122.5,95.5C 126.142,100.616 129.142,106.116 131.5,112C 128.634,117.564 125.634,123.064 122.5,128.5C 115.858,129.664 109.192,129.831 102.5,129C 98.768,123.594 95.4347,117.927 92.5,112C 95.6612,106.021 98.9945,100.187 102.5,94.5 Z"/></g>
<g><path style="opacity:1" fill="#2b2523" d="M 128.5,95.5 C 136.486,95.5561 138.319,98.8894 134,105.5C 131.888,102.273 130.055,98.9396 128.5,95.5 Z"/></g>
<g><path style="opacity:1" fill="#2b2725" d="M 94.5,95.5 C 95.0431,95.56 95.3764,95.8933 95.5,96.5C 93.6667,99.5 91.8333,102.5 90,105.5C 85.7083,99.3731 87.2083,96.0398 94.5,95.5 Z"/></g>
<g><path style="opacity:1" fill="#292929" d="M 80.5,98.5 C 81.4972,98.4701 82.1639,98.9701 82.5,100C 83.8378,104.013 85.1711,108.013 86.5,112C 84.458,116.292 83.1247,120.792 82.5,125.5C 56.8576,117.684 56.1909,108.684 80.5,98.5 Z"/></g>
<g><path style="opacity:1" fill="#292928" d="M 142.5,98.5 C 167.561,107.159 167.728,116.159 143,125.5C 141.028,121.057 139.195,116.557 137.5,112C 139.273,107.51 140.94,103.01 142.5,98.5 Z"/></g>
<g><path style="opacity:1" fill="#03d7f8" d="M 107.5,102.5 C 117.823,100.992 122.323,105.325 121,115.5C 118.367,120.732 114.201,122.565 108.5,121C 102.975,118.081 101.142,113.581 103,107.5C 104.707,105.963 106.207,104.296 107.5,102.5 Z"/></g>
<g><path style="opacity:1" fill="#2c2e2e" d="M 89.5,118.5 C 91.7247,121.262 93.7247,124.262 95.5,127.5C 95,127.833 94.5,128.167 94,128.5C 91.4589,127.993 88.9589,127.326 86.5,126.5C 87.5134,123.812 88.5134,121.146 89.5,118.5 Z"/></g>
<g><path style="opacity:1" fill="#2a2524" d="M 133.5,118.5 C 135.289,120.651 136.622,123.151 137.5,126C 134.906,127.601 132.239,127.767 129.5,126.5C 131.297,124.045 132.63,121.378 133.5,118.5 Z"/></g>
<g><path style="opacity:1" fill="#292928" d="M 84.5,132.5 C 89.504,132.889 94.504,133.389 99.5,134C 102.5,137.667 105.5,141.333 108.5,145C 88.9956,162.608 80.9956,158.441 84.5,132.5 Z"/></g>
<g><path style="opacity:1" fill="#292828" d="M 136.5,131.5 C 137.5,131.5 138.5,131.5 139.5,131.5C 141.208,139.006 140.708,146.339 138,153.5C 137.044,154.894 135.711,155.561 134,155.5C 126.738,154.064 120.904,150.398 116.5,144.5C 119.742,141.426 122.409,137.926 124.5,134C 128.699,133.472 132.699,132.639 136.5,131.5 Z"/></g>
<g><path style="opacity:1" fill="#2c2625" d="M 106.5,135.5 C 109.976,134.357 113.642,134.19 117.5,135C 116.042,137.46 114.209,139.627 112,141.5C 110.383,139.237 108.55,137.237 106.5,135.5 Z"/></g>
</svg>
