<svg width="140" height="63" viewBox="0 0 140 63" fill="none" xmlns="http://www.w3.org/2000/svg">
<g id="Frame" clip-path="url(#clip0_287_5049)">
<g id="Group">
<path id="Vector" d="M73.7832 20.4278C73.7832 22.0023 72.5148 23.2706 70.9398 23.2706C69.3655 23.2706 68.0972 22.0023 68.0972 20.4278C68.0972 18.8533 69.3218 17.5849 70.9398 17.5849C72.5582 17.6287 73.7832 18.897 73.7832 20.4278ZM62.0616 26.1572C62.0616 26.4196 62.0616 26.857 62.0616 26.857C62.0616 26.857 60.7058 25.1076 57.8192 25.1076C53.0519 25.1076 49.3343 28.7377 49.3343 33.7673C49.3343 38.7533 53.0081 42.4272 57.8192 42.4272C60.7495 42.4272 62.0616 40.634 62.0616 40.634V41.3775C62.0616 41.7274 62.324 41.9898 62.6739 41.9898H66.2165V25.5449C66.2165 25.5449 62.9801 25.5449 62.6739 25.5449C62.324 25.5449 62.0616 25.8511 62.0616 26.1572ZM62.0616 36.6977C61.4056 37.6599 60.0935 38.4909 58.519 38.4909C55.7198 38.4909 53.5768 36.7414 53.5768 33.7673C53.5768 30.7933 55.7198 29.0439 58.519 29.0439C60.0497 29.0439 61.4493 29.9186 62.0616 30.8371V36.6977ZM68.8408 25.5449H73.0391V41.9898H68.8408V25.5449ZM131.558 25.1076C128.672 25.1076 127.316 26.857 127.316 26.857V17.6287H123.118V41.9898C123.118 41.9898 126.354 41.9898 126.66 41.9898C127.01 41.9898 127.272 41.6836 127.272 41.3775V40.634C127.272 40.634 128.628 42.4272 131.515 42.4272C136.282 42.4272 140 38.7533 140 33.7673C140 28.7814 136.282 25.1076 131.558 25.1076ZM130.859 38.4472C129.241 38.4472 127.972 37.6161 127.316 36.654V30.7933C127.972 29.9186 129.372 29.0001 130.859 29.0001C133.658 29.0001 135.801 30.7496 135.801 33.7236C135.801 36.6977 133.658 38.4472 130.859 38.4472ZM120.931 32.2366V42.0336H116.732V32.7177C116.732 30.006 115.857 28.9126 113.496 28.9126C112.227 28.9126 110.915 29.5687 110.084 30.5309V41.9898H105.885V25.5449H109.21C109.56 25.5449 109.821 25.8511 109.821 26.1572V26.857C111.046 25.5887 112.665 25.1076 114.282 25.1076C116.12 25.1076 117.65 25.6324 118.875 26.6821C120.362 27.9067 120.931 29.4812 120.931 32.2366ZM95.6946 25.1076C92.8085 25.1076 91.4526 26.857 91.4526 26.857V17.6287H87.254V41.9898C87.254 41.9898 90.4901 41.9898 90.796 41.9898C91.146 41.9898 91.4085 41.6836 91.4085 41.3775V40.634C91.4085 40.634 92.7644 42.4272 95.6512 42.4272C100.418 42.4272 104.136 38.7533 104.136 33.7673C104.179 28.7814 100.462 25.1076 95.6946 25.1076ZM94.9953 38.4472C93.3769 38.4472 92.1085 37.6161 91.4526 36.654V30.7933C92.1085 29.9186 93.5078 29.0001 94.9953 29.0001C97.7939 29.0001 99.9373 30.7496 99.9373 33.7236C99.9373 36.6977 97.7939 38.4472 94.9953 38.4472ZM83.6238 25.1076C84.8922 25.1076 85.5481 25.3262 85.5481 25.3262V29.2188C85.5481 29.2188 82.0488 28.0379 79.862 30.5309V42.0336H75.6634V25.5449C75.6634 25.5449 78.9002 25.5449 79.2061 25.5449C79.5561 25.5449 79.8186 25.8511 79.8186 26.1572V26.857C80.6061 25.9385 82.3113 25.1076 83.6238 25.1076ZM40.0185 40.5027C39.7998 39.9779 39.5811 39.4093 39.3624 38.9282C39.0126 38.141 38.6626 37.3975 38.3565 36.6977L38.3128 36.654C35.2949 30.0935 32.0585 23.4456 28.647 16.8851L28.5159 16.6227C28.1659 15.9667 27.8161 15.2669 27.4661 14.5671C27.0288 13.7799 26.5914 12.9489 25.8916 12.1616C24.4921 10.4122 22.4802 9.44995 20.3371 9.44995C18.1503 9.44995 16.1822 10.4122 14.7389 12.0741C14.0828 12.8614 13.6017 13.6924 13.1644 14.4796C12.8145 15.1794 12.4646 15.8792 12.1147 16.5352L11.9835 16.7976C8.61583 23.3581 5.33557 30.006 2.31776 36.5665L2.27402 36.654C1.96787 37.3538 1.61798 38.0972 1.26809 38.8845C1.04941 39.3656 0.83073 39.8904 0.612047 40.459C0.0434747 42.0772 -0.131471 43.6081 0.0872114 45.1826C0.568311 48.4628 2.75513 51.2182 5.77293 52.4428C6.91008 52.9239 8.09097 53.1426 9.31555 53.1426C9.66548 53.1426 10.1028 53.0988 10.4527 53.055C11.896 52.8801 13.383 52.399 14.8264 51.568C16.6196 50.5621 18.3252 49.1188 20.2497 47.0194C22.1741 49.1188 23.9235 50.5621 25.6729 51.568C27.1163 52.399 28.6033 52.8801 30.0466 53.055C30.3965 53.0988 30.8338 53.1426 31.1838 53.1426C32.4083 53.1426 33.633 52.9239 34.7264 52.4428C37.7879 51.2182 39.931 48.419 40.4121 45.1826C40.762 43.6517 40.5871 42.121 40.0185 40.5027ZM20.2934 42.777C17.9316 39.803 16.4009 37.0038 15.876 34.6421C15.6573 33.6361 15.6136 32.7614 15.7448 31.9742C15.8323 31.2744 16.0947 30.6621 16.4446 30.1373C17.2756 28.9564 18.6752 28.2128 20.2934 28.2128C21.9116 28.2128 23.355 28.9126 24.1422 30.1373C24.4921 30.6621 24.7545 31.2744 24.842 31.9742C24.9732 32.7614 24.9295 33.6799 24.7108 34.6421C24.1859 36.9601 22.6552 39.7593 20.2934 42.777ZM37.7442 44.8326C37.4381 47.1069 35.9073 49.0751 33.7642 49.9498C32.7145 50.3871 31.5774 50.5184 30.4402 50.3871C29.3468 50.256 28.2534 49.906 27.1163 49.25C25.5418 48.3753 23.9673 47.0194 22.1303 45.0076C25.0169 41.4649 26.7664 38.2285 27.4225 35.3418C27.7286 33.9861 27.7723 32.7614 27.6411 31.6243C27.4661 30.5309 27.0725 29.5249 26.4602 28.6502C25.1044 26.6821 22.8301 25.5449 20.2934 25.5449C17.7567 25.5449 15.4824 26.7258 14.1266 28.6502C13.5143 29.5249 13.1206 30.5309 12.9457 31.6243C12.7707 32.7614 12.8145 34.0298 13.1644 35.3418C13.8204 38.2285 15.6136 41.5087 18.4565 45.0513C16.6633 47.0632 15.045 48.419 13.4705 49.2937C12.3334 49.9498 11.24 50.2997 10.1466 50.4309C8.96569 50.5621 7.82854 50.3871 6.8226 49.9935C4.67953 49.1188 3.14875 47.1507 2.8426 44.8764C2.71139 43.783 2.79886 42.6896 3.23622 41.4649C3.36744 41.0276 3.58612 40.5902 3.8048 40.0654C4.11095 39.3656 4.46085 38.6221 4.81073 37.8786L4.85447 37.7911C7.87229 31.2744 11.1087 24.6264 14.4764 18.1535L14.6077 17.891C14.9575 17.235 15.3075 16.5352 15.6573 15.8792C16.0073 15.1794 16.4009 14.5234 16.882 13.9548C17.8005 12.9051 19.025 12.3365 20.3809 12.3365C21.7367 12.3365 22.9613 12.9051 23.8797 13.9548C24.3609 14.5234 24.7545 15.1794 25.1044 15.8792C25.4543 16.5352 25.8042 17.235 26.1541 17.891L26.2853 18.1535C29.6093 24.6702 32.8457 31.3181 35.8635 37.8348V37.8786C36.2134 38.5784 36.5196 39.3656 36.8694 40.0654C37.0881 40.5902 37.3068 41.0276 37.438 41.4649C37.7879 42.6021 37.9192 43.6955 37.7442 44.8326Z" fill="#D0D1DD"/>
</g>
</g>
<defs>
<clipPath id="clip0_287_5049">
<rect width="140" height="63" fill="white"/>
</clipPath>
</defs>
</svg>
