  <svg width="33" height="32" viewBox="0 0 33 32" fill="none" xmlns="http://www.w3.org/2000/svg">
                                <g id="Frame">
                                    <path id="Vector" d="M7.99492 4.36203C9.63904 3.77753 11.5454 4.14325 12.8614 5.45921C14.1777 6.77554 14.5433 8.68262 13.958 10.3271L28.4177 24.7868L25.5893 27.6152L11.1282 13.156C9.48403 13.7405 7.57766 13.3748 6.2617 12.0589C4.94537 10.7425 4.57981 8.83546 5.16502 7.19102L8.14731 10.1733C8.92837 10.9543 10.1947 10.9543 10.9757 10.1733C11.7568 9.39221 11.7568 8.12587 10.9757 7.34483L7.99492 4.36203ZM21.8181 6.87342L26.0607 4.51639L27.9463 6.40202L25.5893 10.6447L23.2322 11.1161L20.4038 13.9445L18.5182 12.0589L21.3466 9.23045L21.8181 6.87342ZM12.39 17.2443L15.2183 20.0728L8.61873 26.6724C7.83767 27.4535 6.57134 27.4535 5.7903 26.6724C5.0552 25.9373 5.01196 24.7723 5.66057 23.9867L5.7903 23.844L12.39 17.2443Z" fill="#00D563" />
                                </g>
                            </svg>
                      