  <svg width="80" height="80" viewBox="0 0 80 80" fill="none" xmlns="http://www.w3.org/2000/svg">
                                            <g id="c/circle">
                                                <path id="Subtract" fill-rule="evenodd" clip-rule="evenodd" d="M40 79.3104C61.7105 79.3104 79.3103 61.7105 79.3103 40C79.3103 18.2896 61.7105 0.689728 40 0.689728C18.2895 0.689728 0.689697 18.2896 0.689697 40C0.689697 61.7105 18.2895 79.3104 40 79.3104ZM39.9995 70.1382C56.6442 70.1382 70.1374 56.645 70.1374 40.0002C70.1374 23.3555 56.6442 9.86234 39.9995 9.86234C23.3548 9.86234 9.86157 23.3555 9.86157 40.0002C9.86157 56.645 23.3548 70.1382 39.9995 70.1382Z" fill="#292F3B" />
                                                <path id="Subtract_2" fill-rule="evenodd" clip-rule="evenodd" d="M41.5654 79.279C35.7249 79.5119 29.906 78.4395 24.5323 76.1398L28.1382 67.714C31.7785 69.2739 35.788 70.1377 39.9992 70.1377C56.6439 70.1377 70.1371 56.6445 70.1371 39.9998C70.1371 23.3551 56.6439 9.86185 39.9992 9.86185C39.9191 9.86185 39.8391 9.86216 39.7592 9.86279L39.6863 0.690817C45.5312 0.644367 51.3129 1.90194 56.6105 4.37198C61.9081 6.84202 66.5882 10.4623 70.31 14.9694C74.0318 19.4764 76.7017 24.7567 78.1253 30.4258C79.5489 36.0949 79.6903 42.0101 78.5393 47.7408C77.3883 53.4715 74.9738 58.8733 71.4717 63.5531C67.9695 68.2329 63.4678 72.0727 58.2943 74.7932C53.1209 77.5136 47.4059 79.046 41.5654 79.279Z" fill="#1849A9" />
                                                <circle id="Ellipse 9" cx="26.8968" cy="72.1035" r="4.5862" fill="#1849A9" />
                                                <circle id="Ellipse 10" cx="40.0002" cy="5.27615" r="4.5862" fill="#1849A9" />
                                            </g>
                                        </svg>