<svg width="35" height="35" viewBox="0 0 30 30" fill="none" xmlns="http://www.w3.org/2000/svg">
                                            <g id="Group 109">
                                                <circle id="Ellipse 48" opacity="0.05" cx="14.7578" cy="14.9084" r="14.3633" fill="#00D563" />
                                                <path id="Vector" opacity="0.8" d="M15.415 14.9085L18.2114 17.705C18.3934 17.8869 18.3934 18.181 18.2114 18.3629C18.0295 18.5448 17.7354 18.5448 17.5535 18.3629L14.757 15.5664L11.9606 18.3629C11.7787 18.5448 11.4846 18.5448 11.3027 18.3629C11.1208 18.181 11.1208 17.8869 11.3027 17.705L14.0991 14.9085L11.3027 12.112C11.1208 11.9301 11.1208 11.636 11.3027 11.4541C11.3934 11.3633 11.5126 11.3177 11.6317 11.3177C11.7508 11.3177 11.8699 11.3633 11.9606 11.4541L14.757 14.2506L17.5535 11.4541C17.6442 11.3633 17.7633 11.3177 17.8824 11.3177C18.0016 11.3177 18.1207 11.3633 18.2114 11.4541C18.3934 11.636 18.3934 11.9301 18.2114 12.112L15.415 14.9085Z" fill="#00D563" />
                                            </g>
                                        </svg>