<svg width="160" height="41" viewBox="0 0 160 41" fill="none" xmlns="http://www.w3.org/2000/svg">
<g id="Frame" clip-path="url(#clip0_287_5064)">
<path id="Vector" d="M43.9987 10.4999L43.9416 10.519V19.0331H35.8655V10.519L35.8084 10.4999C34.6084 10.2523 33.4275 10.2523 32.2466 10.4999L32.1895 10.519V30.0996L32.2466 30.1186C32.8371 30.2328 33.4275 30.3091 34.0179 30.3091C34.6084 30.3091 35.1989 30.2519 35.8084 30.1186L35.8655 30.0996V22.1568H43.9416V30.0996L43.9987 30.1186C45.1797 30.3662 46.3796 30.3662 47.5606 30.1186L47.6177 30.0996V10.519L47.5606 10.4999C46.3606 10.2714 45.1797 10.2714 43.9987 10.4999ZM56.5128 16.0046C52.2843 16.0046 49.77 18.6712 49.77 23.1473C49.77 25.4711 50.3034 27.3187 51.37 28.5948C52.5319 29.9852 54.2652 30.69 56.5699 30.69C60.4746 30.69 62.4746 28.3662 62.7222 26.0616V26.0044L62.6651 25.9853C61.6746 25.6616 60.7603 25.5853 59.6747 25.7377H59.6365V25.7758C59.4079 27.1472 58.2651 27.9663 56.608 27.9663C54.2843 27.9663 53.1414 26.6901 53.1033 24.0616H62.9317V24.0044C63.2175 21.414 62.7031 19.3188 61.446 17.8903C60.2842 16.6712 58.589 16.0046 56.5128 16.0046ZM56.4747 18.5379C57.4461 18.5379 58.2651 18.8426 58.8175 19.4331C59.3889 20.0426 59.6747 20.9568 59.6175 22.0425H53.1033C53.1605 19.814 54.3986 18.5379 56.4747 18.5379ZM65.3127 10.4999L65.2555 10.519V30.0996L65.3127 30.1186C65.865 30.2328 66.4174 30.3091 66.9888 30.3091C67.5411 30.3091 68.1126 30.2519 68.665 30.1186L68.7221 30.0996V10.519L68.665 10.4999C67.5602 10.2523 66.4364 10.2714 65.3127 10.4999ZM78.36 16.0046C76.8934 16.0046 75.3505 16.576 73.8839 17.6616L73.6743 16.6332L73.6363 16.6141C72.7982 16.3664 72.1125 16.3664 71.2935 16.6141L71.2554 16.6332V36.1184L71.3125 36.1376C71.8649 36.2518 72.4172 36.328 72.9887 36.328C73.5601 36.328 74.1124 36.2709 74.6648 36.1376L74.7219 36.1184V29.6043C75.8839 30.3472 77.1219 30.69 78.5123 30.69C82.3595 30.69 84.6643 27.9663 84.6643 23.3759C84.6459 18.7092 82.3595 16.0046 78.36 16.0046ZM74.6648 19.8712C75.6934 19.1664 76.6458 18.8426 77.6743 18.8426C80.0171 18.8426 81.2931 20.4616 81.2931 23.433C81.2931 26.3472 80.0363 27.89 77.6362 27.89C76.6076 27.89 75.6362 27.5663 74.6648 26.8805V19.8712ZM99.3499 19.5664C98.7595 19.3378 98.2259 19.1474 97.7123 18.976C95.0451 18.0236 93.4451 17.4522 93.4075 16.0046C93.3883 15.3379 93.5979 14.7665 94.0547 14.2903C94.7219 13.6046 95.8451 13.2427 97.2171 13.2427C98.5691 13.2427 99.6171 13.6046 100.245 14.2712C100.779 14.8427 101.008 15.6236 100.95 16.595V16.6522L101.008 16.6712C102.169 16.8998 103.331 16.8808 104.588 16.595L104.645 16.576V16.5188C104.721 14.8808 104.226 13.4522 103.216 12.3856C101.96 11.0523 99.9403 10.3475 97.3883 10.3285H97.3123C92.5691 10.3285 89.7123 12.4427 89.6739 15.9856C89.6547 19.5092 92.8931 20.6902 94.8355 21.3759L95.1219 21.4902C95.7691 21.7188 96.3787 21.9283 96.9123 22.1188C99.5403 23.033 101.121 23.5854 101.179 24.9758C101.198 25.6996 100.988 26.2901 100.55 26.7472C99.9211 27.3948 98.8171 27.7186 97.3499 27.6996C95.7307 27.6996 94.4931 27.2805 93.7883 26.5187C93.2739 25.9472 93.0643 25.2235 93.1403 24.3472V24.2901L93.0835 24.2711C91.9027 24.0425 90.7027 24.0616 89.5219 24.3282L89.4835 24.3472V24.4044C89.3883 25.9853 89.8643 27.3948 90.8931 28.4805C92.2643 29.9472 94.5123 30.7091 97.4075 30.69C100.245 30.69 104.912 29.9281 104.95 24.9758C104.893 21.6807 102.074 20.614 99.3499 19.5664ZM113.464 18.8426C115.807 18.8426 116.36 20.3664 116.474 21.2616V21.3188H116.531C117.616 21.4902 118.645 21.414 119.636 21.1283L119.692 21.1092V21.0521C119.597 19.6807 119.007 18.4426 118.036 17.5474C116.931 16.5379 115.35 15.9856 113.484 15.9856C109.026 15.9856 106.569 18.595 106.569 23.3378C106.569 28.0615 109.007 30.6709 113.426 30.6709C115.331 30.6709 116.931 30.1186 118.055 29.071C118.988 28.1948 119.56 27.0139 119.673 25.7377V25.6806L119.616 25.6616C118.683 25.3377 117.655 25.2806 116.531 25.4711H116.492V25.5092C116.188 27.6424 114.112 27.7948 113.484 27.7948C111.084 27.7948 109.96 26.3663 109.96 23.2996C109.94 20.2712 111.064 18.8426 113.464 18.8426ZM128.131 16.0046C123.75 16.0046 121.331 18.614 121.331 23.3568C121.331 28.0805 123.75 30.69 128.131 30.69C132.512 30.69 134.931 28.0805 134.931 23.3568C134.931 18.614 132.512 16.0046 128.131 16.0046ZM131.616 23.3759C131.616 26.4044 130.473 27.871 128.131 27.871C125.788 27.871 124.645 26.4044 124.645 23.3759C124.645 20.2902 125.75 18.8426 128.131 18.8426C130.473 18.8426 131.616 20.3283 131.616 23.3759ZM145.902 16.6332L145.844 16.6522V26.4044C144.74 27.3568 143.73 27.7758 142.568 27.7758C140.93 27.7758 140.225 26.8424 140.225 24.633V16.6332L140.168 16.6141C139.064 16.3474 137.94 16.3474 136.816 16.6141L136.759 16.6332V25.4139C136.759 28.7472 138.549 30.6709 141.692 30.6709C143.368 30.6709 144.835 30.0233 146.416 28.5757L146.74 30.0996L146.778 30.1186C147.578 30.3281 148.416 30.3281 149.216 30.1186L149.273 30.0996V16.6332L149.216 16.6141C148.149 16.3474 147.025 16.3474 145.902 16.6332ZM159.825 27.49L159.806 27.4329L159.749 27.452C158.416 27.7568 157.635 27.7376 157.178 27.3758C156.796 27.071 156.625 26.5377 156.625 25.6996V19.4521H159.33L159.349 19.395C159.54 18.4807 159.54 17.5474 159.349 16.6141L159.33 16.5569H156.625V12.8618L156.568 12.8428C155.464 12.5951 154.34 12.5951 153.235 12.8428L153.178 12.8618L153.196 16.5569H151.483L151.464 16.6141C151.254 17.5284 151.254 18.4807 151.464 19.395L151.483 19.4521H153.196L153.216 25.452C153.216 27.1282 153.311 28.8234 154.473 29.7948C155.101 30.3091 156.016 30.5757 157.196 30.5757C157.92 30.5757 158.759 30.4805 159.73 30.29H159.768L159.787 30.2519C160.054 29.3567 160.073 28.4234 159.825 27.49Z" fill="#D0D1DD"/>
<path id="Vector_2" d="M1.88568 23.0139L11.1426 13.757C12.3426 12.576 13.0854 10.9189 13.0854 9.10944C13.0854 7.31899 12.3617 5.68093 11.1998 4.5L1.94282 13.757C0.742843 14.9379 0 16.595 0 18.4045C0 20.214 0.723796 21.833 1.88568 23.0139ZM24.3043 17.6045L15.0474 26.8615C13.8474 28.0424 13.1045 29.6995 13.1045 31.509C13.1045 33.2994 13.8283 34.9375 14.9902 36.1185L24.2472 26.8615C25.4471 25.6806 26.19 24.0234 26.19 22.2139C26.19 20.4045 25.4662 18.7854 24.3043 17.6045ZM24.2472 13.776C25.4471 12.5951 26.19 10.938 26.19 9.12848C26.19 7.33804 25.4662 5.69998 24.3043 4.51905L1.94282 26.8615C0.742843 28.0614 0 29.6995 0 31.5281C0 33.3185 0.723796 34.9566 1.88568 36.1375L24.2472 13.776Z" fill="#D0D1DD"/>
</g>
<defs>
<clipPath id="clip0_287_5064">
<rect width="160" height="40" fill="white" transform="translate(0 0.5)"/>
</clipPath>
</defs>
</svg>
