 <svg className='inline-block mr-4' width="18" height="18" viewBox="0 0 9 9" fill="none" xmlns="http://www.w3.org/2000/svg">
                                            <g id="Location">
                                                <path id="Location_2" fill-rule="evenodd" clip-rule="evenodd" d="M0.769623 3.94088C0.769623 1.95881 2.42594 0.356781 4.42943 0.356781C6.43856 0.356781 8.09488 1.95881 8.09488 3.94088C8.09488 4.93967 7.73164 5.86694 7.13377 6.65287C6.47419 7.51982 5.66124 8.27516 4.74618 8.86806C4.53675 9.00508 4.34774 9.01542 4.11789 8.86806C3.19762 8.27516 2.38466 7.51982 1.73074 6.65287C1.13243 5.86694 0.769623 4.93967 0.769623 3.94088ZM3.2247 4.05252C3.2247 4.71651 3.76652 5.23874 4.43088 5.23874C5.09566 5.23874 5.6427 4.71651 5.6427 4.05252C5.6427 3.39369 5.09566 2.84604 4.43088 2.84604C3.76652 2.84604 3.2247 3.39369 3.2247 4.05252Z" fill="#00D563" />
                                            </g>
                                        </svg>